<svg xmlns="http://www.w3.org/2000/svg" viewBox="0 0 200 200" width="200" height="200">
  <!-- Background Circle with Gradient -->
  <defs>
    <linearGradient id="logoGradient" x1="0%" y1="0%" x2="100%" y2="100%">
      <stop offset="0%" stop-color="#4e54c8" />
      <stop offset="100%" stop-color="#8f94fb" />
    </linearGradient>
    <filter id="shadow" x="-20%" y="-20%" width="140%" height="140%">
      <feGaussianBlur in="SourceAlpha" stdDeviation="3" />
      <feOffset dx="0" dy="2" result="offsetblur" />
      <feComponentTransfer>
        <feFuncA type="linear" slope="0.3" />
      </feComponentTransfer>
      <feMerge>
        <feMergeNode />
        <feMergeNode in="SourceGraphic" />
      </feMerge>
    </filter>
  </defs>
  
  <!-- Main Circle -->
  <circle cx="100" cy="100" r="90" fill="url(#logoGradient)" filter="url(#shadow)" />
  
  <!-- Wallet Shape -->
  <path d="M140,80 H60 c-5.5,0-10,4.5-10,10 v60 c0,5.5,4.5,10,10,10 h80 c5.5,0,10-4.5,10-10 v-15 h-25 c-5.5,0-10-4.5-10-10 v-10 c0-5.5,4.5-10,10-10 h25 v-15 C150,84.5,145.5,80,140,80 z" 
        fill="white" />
  
  <!-- Card Slot -->
  <rect x="125" y="115" width="25" height="10" rx="5" ry="5" fill="url(#logoGradient)" />
  
  <!-- Dollar Sign -->
  <path d="M95,95 v-5 h10 v5 h5 c2.8,0,5,2.2,5,5 v5 c0,2.8-2.2,5-5,5 h-15 c-2.8,0-5,2.2-5,5 v5 c0,2.8,2.2,5,5,5 h5 v5 h10 v-5 h5" 
        stroke="#4e54c8" stroke-width="6" stroke-linecap="round" stroke-linejoin="round" fill="none" />
  
  <!-- Animated Circles (for static SVG, these are just decorative) -->
  <circle cx="70" cy="90" r="5" fill="#8f94fb" opacity="0.7">
    <animate attributeName="opacity" values="0.7;0.3;0.7" dur="2s" repeatCount="indefinite" />
  </circle>
  <circle cx="130" cy="145" r="5" fill="#8f94fb" opacity="0.3">
    <animate attributeName="opacity" values="0.3;0.7;0.3" dur="2s" repeatCount="indefinite" />
  </circle>
</svg> 